# xmcd
#
# Track frame offsets:
#      150
#      21774
#      34711
#      49277
#      68542
#      84381
#      99012
#      111387
#      126692
#      142737
# 
# Disc length: 2143 seconds
#
# Revision: 2
# Processed by: cddbd v1.4PL0 Copyright (c) Steve Scherf et al.
#
# Submitted via: FreeRIP 1.21
#
DISCID=7e085d0a
DTITLE=Merle Haggard and Willie Nelson - Pancho and Lefty
DYEAR=1982
DGENRE=country
TTITLE0=Merle Haggard and Willie Nelson-Pancho and Lefty-'82-Poncho and Lefty
TTITLE1=Merle Haggard and Willie Nelson-It's My Lazy Day-'82-Poncho and Lefty
TTITLE2=Merle Haggard and Willie Nelson-My Mary-'82-Poncho and Lefty
TTITLE3=Merle Haggard and Willie Nelson-Half A Man-'82-Poncho and Lefty
TTITLE4=Merle Haggard and Willie Nelson-Reasons To Quit-'82-Poncho and Lefty
TTITLE5=Merle Haggard and Willie Nelson-No Reason To Quit-'82-Poncho and Lefty
TTITLE6=Merle Haggard and Willie Nelson-Still Water Runs The Deepest-'82-Poncho and Lefty
TTITLE7=Merle Haggard and Willie Nelson-My Life's Been A Pleasure-'82-Poncho and Lefty
TTITLE8=Merle Haggard and Willie Nelson-All The Soft Places To Fall-'82-Ponch and Lefty
TTITLE9=Merle Haggard and Willie Nelson-Opportunity To Cry-'82-Poncho and Lefty
EXTD=
EXTT0=
EXTT1=
EXTT2=
EXTT3=
EXTT4=
EXTT5=
EXTT6=
EXTT7=
EXTT8=
EXTT9=
PLAYORDER=
